<svg xmlns="http://www.w3.org/2000/svg" viewBox="94.5 230.51 91.9 81.17">
  <defs>
    <linearGradient id="a" x1="386.59" y1="772.98" x2="334.67" y2="824.91" gradientTransform="rotate(180 250.52 535.02)" gradientUnits="userSpaceOnUse">
      <stop offset="0" stop-color="#662d91"/>
      <stop offset=".38" stop-color="#92278f"/>
      <stop offset="1" stop-color="#ec008c"/>
    </linearGradient>
  </defs>
  <path d="m107.94 290.35 18.49 12.43c13.28 8.92 13.3 8.91 13.94 8.9s.74 0 14-8.9l18.48-12.43a7.78 7.78 0 0 0 3.45-6.46v-25.58a7.75 7.75 0 0 0-3.45-6.46c-3.87-2.61-11.65-7.85-18.48-12.43-12.77-8.58-13.26-8.91-13.87-8.91h-.07c-.76 0-.75 0-14 8.91-6.83 4.58-14.62 9.82-18.49 12.43a7.77 7.77 0 0 0-3.44 6.46v25.58a7.79 7.79 0 0 0 3.44 6.46m32.47-54.9c3.79 2.53 16 10.76 28.36 19l-3.51 2.43-10.87-7.3c-12.78-8.58-13.26-8.91-13.87-8.91h-.07c-.76 0-.75 0-14 8.91l-10.85 7.29-3.45-2.47c12.27-8.22 24.47-16.4 28.26-18.95m9.28 31.95c-8.2-5.49-8.65-5.74-9.17-5.74h-.07c-.66 0-.76 0-9.32 5.74l-3.91-2.63c7.86-5.28 11.56-7.76 13.19-8.84 1.62 1.08 5.34 3.57 13.19 8.85zm-4 2.71-5.25 3.51-5.25-3.51 5.25-3.52zm12-8-3.24-2.18c-12.78-8.58-13.26-8.9-13.87-8.9h-.07c-.76 0-.75 0-14 8.9l-3.24 2.18-3.62-2.43c13.3-8.95 18.75-12.6 20.84-14 2.08 1.39 7.56 5.06 20.84 14zM109 259.69v-1.73l17.4 11.7c13.28 8.92 13.3 8.91 13.94 8.9s.74 0 14-8.9L171.78 258v3.66a3.31 3.31 0 0 1-1.45 2.74l-30 20.12c-2.51-1.68-9.88-6.62-30-20.12a3.32 3.32 0 0 1-1.46-2.74zm0 9.1 17.44 11.72c13.28 8.92 13.3 8.91 13.94 8.9s.74 0 14-8.9l17.43-11.72V273a3.29 3.29 0 0 1-1.45 2.74c-12.84 8.64-26 17.48-30 20.12-4-2.64-17.12-11.48-30-20.12A3.3 3.3 0 0 1 109 273zm0 11.41 17.44 11.72c13.28 8.92 13.3 8.92 13.94 8.91s.74 0 14-8.91l17.43-11.72v3.69a3.28 3.28 0 0 1-1.45 2.73c-20.09 13.51-27.45 18.45-30 20.12-2.51-1.67-9.88-6.61-30-20.12a3.28 3.28 0 0 1-1.46-2.73z" fill="url(#a)" data-name="Techbox Logo"/>
</svg>
